<?xml version="1.0" encoding="UTF-8" standalone="no"?>
<!-- Created with Inkscape (http://www.inkscape.org/) -->
<svg
   xmlns:dc="http://purl.org/dc/elements/1.1/"
   xmlns:cc="http://creativecommons.org/ns#"
   xmlns:rdf="http://www.w3.org/1999/02/22-rdf-syntax-ns#"
   xmlns:svg="http://www.w3.org/2000/svg"
   xmlns="http://www.w3.org/2000/svg"
   xmlns:xlink="http://www.w3.org/1999/xlink"
   xmlns:sodipodi="http://sodipodi.sourceforge.net/DTD/sodipodi-0.dtd"
   xmlns:inkscape="http://www.inkscape.org/namespaces/inkscape"
   version="1.0"
   width="984.00006"
   height="648.00214"
   id="svg3337"
   sodipodi:version="0.32"
   inkscape:version="0.46"
   sodipodi:docname="Flag of West Melanesia.svg"
   inkscape:output_extension="org.inkscape.output.svg.inkscape">
  <metadata
     id="metadata18">
    <rdf:RDF>
      <cc:Work
         rdf:about="">
        <dc:format>image/svg+xml</dc:format>
        <dc:type
           rdf:resource="http://purl.org/dc/dcmitype/StillImage" />
      </cc:Work>
    </rdf:RDF>
  </metadata>
  <sodipodi:namedview
     inkscape:window-height="719"
     inkscape:window-width="1024"
     inkscape:pageshadow="2"
     inkscape:pageopacity="0.0"
     guidetolerance="10.0"
     gridtolerance="10.0"
     objecttolerance="10.0"
     borderopacity="1.0"
     bordercolor="#666666"
     pagecolor="#ffffff"
     id="base"
     showgrid="false"
     showguides="true"
     inkscape:guide-bbox="true"
     inkscape:zoom="0.78086159"
     inkscape:cx="492.00002"
     inkscape:cy="324.00105"
     inkscape:window-x="0"
     inkscape:window-y="22"
     inkscape:current-layer="svg3337" />
  <defs
     id="defs3339">
    <inkscape:perspective
       sodipodi:type="inkscape:persp3d"
       inkscape:vp_x="0 : 150 : 1"
       inkscape:vp_y="0 : 1000 : 0"
       inkscape:vp_z="600 : 150 : 1"
       inkscape:persp3d-origin="300 : 100 : 1"
       id="perspective20" />
    <linearGradient
       id="linearGradient623">
      <stop
         style="stop-color:#000000;stop-opacity:1"
         offset="0"
         id="stop624" />
      <stop
         style="stop-color:#ffffff;stop-opacity:1"
         offset="1"
         id="stop625" />
    </linearGradient>
    <linearGradient
       id="linearGradient626"
       xlink:href="#linearGradient623" />
  </defs>
  <g
     id="g2524">
    <rect
       id="rect1201"
       style="font-size:12px;fill:#008000;fill-opacity:1;fill-rule:evenodd;stroke-width:1pt"
       y="432.00284"
       x="327.9989"
       height="215.99933"
       width="655.99774" />
    <rect
       id="rect880"
       style="font-size:12px;fill:#ffffff;fill-opacity:1;fill-rule:evenodd;stroke-width:1pt"
       y="216.00238"
       x="328.00003"
       height="216.00006"
       width="656" />
    <rect
       width="656"
       height="216.00006"
       x="328.00003"
       y="432.00211"
       style="font-size:12px;fill:#aa0000;fill-opacity:1;fill-rule:evenodd;stroke-width:1pt"
       id="rect3163" />
    <rect
       id="rect3165"
       style="font-size:12px;fill:#000000;fill-opacity:1;fill-rule:evenodd;stroke-width:1pt"
       y="3.2519531e-06"
       x="327.99942"
       height="216.00006"
       width="656" />
    <rect
       id="rect1200"
       style="font-size:12px;fill:#217867;fill-opacity:1;fill-rule:evenodd;stroke-width:1pt"
       y="0.0022251084"
       x="-3.1032094e-15"
       height="647.99982"
       width="328.00003" />
    <g
       transform="matrix(0.851748,0,0,1.2434092,25.811693,369.73551)"
       id="g3271">
      <g
         id="g3255"
         transform="translate(1.992877,0)">
        <g
           transform="translate(-28.173913,-23.6917)"
           id="g3185">
          <path
             style="fill:#ffffff;fill-opacity:0.97687857;fill-rule:nonzero"
             d="M 154.62783,-113.84792 L 137.04033,-135.61582 L 120.99904,-112.23995 L 127.05224,-139.56248 L 98.774668,-137.52945 L 123.91039,-149.83218 L 104.69013,-170.6729 L 129.98066,-158.69163 L 134.29095,-186.71261 L 140.69201,-159.46948 L 165.28712,-173.57036 L 147.97857,-151.58 L 174.33788,-141.14252 L 146.35342,-140.96411 L 154.62783,-113.84792 z"
             id="path3176" />
          <path
             id="path3179"
             d="M 154.62783,-22.923017 L 137.04033,-44.690917 L 120.99904,-21.315047 L 127.05224,-48.637577 L 98.774668,-46.604547 L 123.91039,-58.907277 L 104.69013,-79.747997 L 129.98066,-67.766727 L 134.29095,-95.787707 L 140.69201,-68.544577 L 165.28712,-82.645457 L 147.97857,-60.655097 L 174.33788,-50.217617 L 146.35342,-50.039207 L 154.62783,-22.923017 z"
             style="fill:#ffffff;fill-opacity:0.97687857;fill-rule:nonzero" />
          <path
             style="fill:#ffffff;fill-opacity:0.97687857;fill-rule:nonzero"
             d="M 154.62783,69.282517 L 137.04033,47.514617 L 120.99904,70.890487 L 127.05224,43.567957 L 98.774668,45.600987 L 123.91039,33.298257 L 104.69013,12.457537 L 129.98066,24.438807 L 134.29095,-3.5821734 L 140.69201,23.660957 L 165.28712,9.5600766 L 147.97857,31.550437 L 174.33788,41.987917 L 146.35342,42.166327 L 154.62783,69.282517 z"
             id="path3181" />
          <path
             id="path3183"
             d="M 154.62783,158.92678 L 137.04033,137.15888 L 120.99904,160.53475 L 127.05224,133.21222 L 98.774668,135.24525 L 123.91039,122.94252 L 104.69013,102.1018 L 129.98066,114.08307 L 134.29095,86.062093 L 140.69201,113.30522 L 165.28712,99.204343 L 147.97857,121.1947 L 174.33788,131.63218 L 146.35342,131.81059 L 154.62783,158.92678 z"
             style="fill:#ffffff;fill-opacity:0.97687857;fill-rule:nonzero" />
        </g>
        <g
           transform="translate(75.557317,-23.6917)"
           id="g3191">
          <path
             id="path3193"
             d="M 154.62783,-113.84792 L 137.04033,-135.61582 L 120.99904,-112.23995 L 127.05224,-139.56248 L 98.774668,-137.52945 L 123.91039,-149.83218 L 104.69013,-170.6729 L 129.98066,-158.69163 L 134.29095,-186.71261 L 140.69201,-159.46948 L 165.28712,-173.57036 L 147.97857,-151.58 L 174.33788,-141.14252 L 146.35342,-140.96411 L 154.62783,-113.84792 z"
             style="fill:#ffffff;fill-opacity:0.97687857;fill-rule:nonzero" />
          <path
             style="fill:#ffffff;fill-opacity:0.97687857;fill-rule:nonzero"
             d="M 154.62783,-22.923017 L 137.04033,-44.690917 L 120.99904,-21.315047 L 127.05224,-48.637577 L 98.774668,-46.604547 L 123.91039,-58.907277 L 104.69013,-79.747997 L 129.98066,-67.766727 L 134.29095,-95.787707 L 140.69201,-68.544577 L 165.28712,-82.645457 L 147.97857,-60.655097 L 174.33788,-50.217617 L 146.35342,-50.039207 L 154.62783,-22.923017 z"
             id="path3195" />
          <path
             id="path3197"
             d="M 154.62783,69.282517 L 137.04033,47.514617 L 120.99904,70.890487 L 127.05224,43.567957 L 98.774668,45.600987 L 123.91039,33.298257 L 104.69013,12.457537 L 129.98066,24.438807 L 134.29095,-3.5821734 L 140.69201,23.660957 L 165.28712,9.5600766 L 147.97857,31.550437 L 174.33788,41.987917 L 146.35342,42.166327 L 154.62783,69.282517 z"
             style="fill:#ffffff;fill-opacity:0.97687857;fill-rule:nonzero" />
          <path
             style="fill:#ffffff;fill-opacity:0.97687857;fill-rule:nonzero"
             d="M 154.62783,158.92678 L 137.04033,137.15888 L 120.99904,160.53475 L 127.05224,133.21222 L 98.774668,135.24525 L 123.91039,122.94252 L 104.69013,102.1018 L 129.98066,114.08307 L 134.29095,86.062093 L 140.69201,113.30522 L 165.28712,99.204343 L 147.97857,121.1947 L 174.33788,131.63218 L 146.35342,131.81059 L 154.62783,158.92678 z"
             id="path3199" />
        </g>
      </g>
      <g
         id="g3267"
         transform="translate(1.2806324,-5.1225296)">
        <path
           style="fill:#ffffff;fill-opacity:0.97687857;fill-rule:nonzero"
           d="M 256.37557,-59.3372 L 278.28474,-76.7484 L 255.03913,-92.97787 L 282.3119,-86.7043 L 280.50721,-114.99736 L 292.60663,-89.76315 L 313.60183,-108.81454 L 301.41679,-83.62155 L 329.40206,-79.0852 L 302.10814,-72.90427 L 316.01002,-48.19614 L 294.1601,-65.68164 L 283.51017,-39.40745 L 283.55767,-67.39244 L 256.37557,-59.3372 z"
           id="path3243" />
        <path
           id="path3249"
           d="M -6.1451747,-59.337196 L 15.763993,-76.748396 L -7.4816187,-92.977876 L 19.791155,-86.704306 L 17.986466,-114.99737 L 30.085883,-89.763146 L 51.081082,-108.81455 L 38.896041,-83.621556 L 66.881309,-79.085206 L 39.587397,-72.904276 L 53.489266,-48.196136 L 31.639352,-65.681646 L 20.989423,-39.407446 L 21.036928,-67.392436 L -6.1451747,-59.337196 z"
           style="fill:#ffffff;fill-opacity:0.97687857;fill-rule:nonzero" />
      </g>
    </g>
  </g>
</svg>
